<svg xmlns="http://www.w3.org/2000/svg" version="1.1" x="0px" y="0px" viewBox="0 0 1024 1280"
     style="enable-background:new 0 0 1024 1024;" xml:space="preserve"><path d="M359,490.1c-6,6-12,12.1-18,18.1c-25.9,26.2-51.8,52.3-77.8,78.5c-31.3,31.6-62.7,63.3-94,94.9  C142,709,115,736.3,87.8,763.7c-4.7,4.7-9.4,9.4-14,14V224.4c10,9.4,20.1,18.7,30.1,28.1c40,37.2,79.9,74.5,119.9,111.7  c38.6,36,77.3,72,115.9,108C346.1,478.2,352.5,484.1,359,490.1z"/>
    <path d="M922,825.6H110.3c-8.9,0-17.9,0-26.8,0c-0.2,0-0.4,0-0.6,0c8.5-8.6,17.1-17.3,25.6-25.9  c25.9-26.2,51.8-52.3,77.8-78.5c31.3-31.6,62.7-63.3,94-94.9c27.1-27.3,54.2-54.7,81.3-82.1c8.9-8.9,17.9-17.8,26.7-26.7  c31.5,29.4,62.6,59.3,94.7,88.2c17.1,15.4,41.1,15.4,58.1-0.1c5.4-4.9,10.6-9.9,16-14.9c20.1-18.7,40.2-37.5,60.3-56.2  c2.9-2.7,5.7-5.3,8.6-8c6.7,6.7,13.3,13.4,20,20.2c26.6,26.9,53.2,53.7,79.8,80.6c32.4,32.7,64.8,65.4,97.2,98.1  c27.8,28.1,55.6,56.2,83.5,84.2C911.6,814.9,916.8,820.2,922,825.6z"/>
    <path d="M950.2,224.4V797c-2.5-2.6-5.1-5.1-7.6-7.7c-26.6-26.8-53.2-53.7-79.8-80.6c-32.4-32.7-64.8-65.4-97.2-98.1  c-27.8-28.1-55.6-56.1-83.5-84.2c-8.9-9-17.7-18.2-26.7-27.2c3.1-2.9,6.3-5.8,9.4-8.8c34.8-32.4,69.5-64.8,104.3-97.2  c41.9-39.1,83.9-78.2,125.8-117.2C913.3,258.8,931.8,241.6,950.2,224.4z"/>
    <path d="M932.3,186.4c-4.3,4-8.6,8-12.9,12c-9,8.4-18,16.8-27.1,25.2c-39.7,37-79.3,73.9-119,110.9  c-38.5,35.9-77,71.8-115.6,107.7c-14.5,13.5-29,27-43.6,40.6l0,0c-0.7,0.5-1.3,1.1-1.9,1.7l0,0c-0.6,0.6-1.3,1.2-1.9,1.8  c-16.5,15.4-33,30.8-49.5,46.2c-15.6,14.6-31.8,28.8-47,43.8c0.1-0.1,0-0.1-0.2,0.2c0.1-0.1,0.2-0.1,0.2-0.2  c-0.1,0.2-0.4,0.5-0.7,0.9c0,0,0,0,0.1-0.1c0.2-0.2,0.3-0.4,0.4-0.6c0,0-0.1,0.1-0.2,0.2c-0.1,0.1-0.7,0.5-1,0.8  c-0.1,0-0.3,0.1-0.4,0.1H512c-0.1,0-0.2,0-0.4-0.1c0,0,0,0,0,0c0,0,0,0-0.1,0c-0.1-0.4-0.7-0.8-1.1-0.9c0.2,0.2,0.7,0.5,0.9,0.8  c-0.1-0.1-0.2-0.1-0.4-0.2c-1.3-0.6-1.1-0.8-0.6-0.6c0,0-0.1-0.1-0.1-0.1c-5.9-5.7-12-11.2-18-16.8c-20.2-18.8-40.3-37.6-60.5-56.4  c-10-9.3-20-18.7-30-28c-5.3-5-10.6-9.9-15.9-14.9c-34.9-32.5-69.9-65.1-104.8-97.7c-41.4-38.6-82.9-77.2-124.3-115.8  c-17.4-16.2-34.8-32.4-52.2-48.6c-4.3-4-8.6-8-12.9-12H932.3z"/>
</svg>