<svg xmlns="http://www.w3.org/2000/svg" xml:space="preserve" version="1.1"
     style="shape-rendering:geometricPrecision;text-rendering:geometricPrecision;image-rendering:optimizeQuality;"
     viewBox="0 -5 321 560" x="0px" y="0px" fill-rule="evenodd" clip-rule="evenodd">
    <g><path class="fil0" d="M42 0l237 0c23,0 42,19 42,42l0 466c0,23 -19,42 -42,42l-237 0c-23,0 -42,-19 -42,-42l0 -466c0,-23 19,-42 42,-42zm90 512c-6,0 -10,-4 -10,-10 0,-6 4,-10 10,-10l58 0c5,0 10,4 10,10 0,6 -5,10 -10,10l-58 0zm-104 -444l0 386 266 0 0 -386 -266 0z"/></g>
</svg>