<svg xmlns="http://www.w3.org/2000/svg" width="607" height="612" viewBox="0 0 607 612">
  <metadata><?xpacket begin="﻿" id="W5M0MpCehiHzreSzNTczkc9d"?>
<x:xmpmeta xmlns:x="adobe:ns:meta/" x:xmptk="Adobe XMP Core 5.6-c142 79.160924, 2017/07/13-01:06:39        ">
   <rdf:RDF xmlns:rdf="http://www.w3.org/1999/02/22-rdf-syntax-ns#">
      <rdf:Description rdf:about=""/>
   </rdf:RDF>
</x:xmpmeta>
                                                                                                    
                                                                                                    
                                                                                                    
                                                                                                    
                                                                                                    
                                                                                                    
                                                                                                    
                                                                                                    
                                                                                                    
                                                                                                    
                                                                                                    
                                                                                                    
                                                                                                    
                                                                                                    
                                                                                                    
                                                                                                    
                                                                                                    
                                                                                                    
                                                                                                    
                                                                                                    
                           
<?xpacket end="w"?></metadata>
<defs>
    <style>
      .cls-1 {
        fill-rule: evenodd;
      }
    </style>
  </defs>
  <path id="Forma_1" data-name="Forma 1" class="cls-1" d="M593.015,612.111c-5.6,0-5.9-3.356-8.1-8.872L548.73,515.194c-18.077-44.526-42.867-70-71.8-75.276L461.579,478l18.172,91.473a14.094,14.094,0,0,1-5.183,12.547l-22.693,18.23a14.1,14.1,0,0,1-8.834,3.108h-8.053a14.108,14.108,0,0,1-8.834-3.108l-22.7-18.23a14.089,14.089,0,0,1-5.183-12.547L415.448,478,401.1,438.92c-28.931,5.273-54.723,31.758-72.828,76.346L293.532,603.31c-2.929,7.213-7.151,10.69-14.371,7.763a14.1,14.1,0,0,1-7.766-18.365l35.736-88.045c15.5-38.177,43-88.618,103.536-91.078a14.117,14.117,0,0,1,1.624-.094h53.443a14.117,14.117,0,0,1,1.624.094c60.545,2.46,88.039,52.9,103.536,91.076l35.214,88.117A14.113,14.113,0,0,1,593.015,612.111ZM422.162,564.888l16.852,15.518,16.849-15.517-13.171-73.476h-7.357Zm12-101.672h9.693l4.513-21.526H429.655ZM13.992,612.111a14.108,14.108,0,0,1-13.063-19.4l35.2-86.74c15.677-38.614,43.8-89.95,106.77-89.95h46.7c33.945,0,61.883,15.089,83.04,44.849,0.349,0.49,1.951,2.674,3.9,5.322,6.74,9.184,8.531,11.644,9.122,12.536a14.1,14.1,0,0,1-23.473,15.635c-0.758-1.089-5.717-7.846-8.39-11.49-2.1-2.859-3.822-5.208-4.157-5.682-9.757-13.727-20.664-22.979-33.357-28.1l-38.636,52.925a14.1,14.1,0,0,1-22.783,0L116.23,445.09c-22.016,8.922-42.929,34.451-57.96,71.479l-35.2,86.739C20.841,608.787,19.562,612.111,13.992,612.111Zm128.6-167.9,23.663,30.568,23.664-30.568H142.591Zm80.55,167.89H73.153a14.1,14.1,0,0,1-14.1-14.1c0-7.786,6.315-11.1,14.1-11.1H223.141c7.789,0,14.1,3.313,14.1,11.1A14.1,14.1,0,0,1,223.141,612.105ZM503.147,509.488a14.1,14.1,0,0,1-14.1-14.1v-1.764a14.1,14.1,0,0,1,28.207,0v1.764A14.1,14.1,0,0,1,503.147,509.488ZM166.254,395.327A71.54,71.54,0,0,1,146.2,255.109c0.144-.046.289-0.092,0.437-0.132a71.332,71.332,0,0,1,14.455-2.542h0a0.312,0.312,0,0,1,.069,0,0.624,0.624,0,0,1,.081,0,0.869,0.869,0,0,0,.088-0.007,0.481,0.481,0,0,0,.077-0.006,0.6,0.6,0,0,0,.09,0,0.3,0.3,0,0,1,.073-0.005,1.248,1.248,0,0,0,.162-0.011h0c0.233-.016.463-0.028,0.7-0.039h0l0.228-.011c0.025,0,.1-0.007.153-0.009a0.377,0.377,0,0,0,.073,0c0.03,0,.058,0,0.088,0l0.068,0,0.066,0a0.41,0.41,0,0,1,.077,0,0.3,0.3,0,0,1,.081,0,0.242,0.242,0,0,1,.062,0,0.6,0.6,0,0,0,.164-0.007q1.311-.049,2.628-0.051c0.023,0,.041,0,0.062,0h0.28c0.037,0,.078,0,0.111,0a1.084,1.084,0,0,0,.113,0c0.041,0,.085,0,0.122,0h0.044A71.539,71.539,0,0,1,166.254,395.327ZM143.886,281.661C133,289.542,116.9,309.353,116.9,323.789c0,23.9,25.463,49.526,49.355,50.343,29.263,1,45.324-24.968,50.052-43.779C185.669,330.527,154.324,308.866,143.886,281.661Zm24.149-1.177a43.17,43.17,0,0,0,37.809,25.637A43.441,43.441,0,0,0,168.035,280.484ZM439.011,392.065a72.4,72.4,0,1,1,13.974-143.452c0.295,0.049.591,0.109,0.885,0.18A72.4,72.4,0,0,1,439.011,392.065ZM413.958,279.253c-11.568,7.98-22.166,25.325-22.166,40.407,0,0.993-1.962,1.984-1.888,2.97,1.751,23.229,25.717,44.238,49.107,44.238,24.384,0,48.222-22.831,48.222-47.208,0-18.137-14.985-36.759-30.653-43.566-5.916,7.616-13.312,17-21.805,21.767a14.1,14.1,0,0,1-19.2-5.393C413.935,289.557,413.447,282.31,413.958,279.253ZM104.945,244.658a14.1,14.1,0,0,1-14.1-14.1V103.527a44.838,44.838,0,0,1,44.8-44.778h50.034a14.1,14.1,0,0,1,14.1,14.1c0,7.786-6.315,9.1-14.1,9.1H135.637c-9.146,0-20.589,12.439-20.589,21.581l1,106.972,22.418-11.879a14.1,14.1,0,0,1,6.895-1.8H267.737c7.788,0,14.1,5.312,14.1,13.1s-6.315,12.1-14.1,12.1h-118.7l-37.2,20.841A14.094,14.094,0,0,1,104.945,244.658Zm334.143-29.2a14.109,14.109,0,0,1-10.424-4.6l-43.413-47.588H271.215a44.834,44.834,0,0,1-44.791-44.776V44.779A44.835,44.835,0,0,1,271.215,0H408.391a44.837,44.837,0,0,1,44.795,44.779V201.356A14.1,14.1,0,0,1,439.088,215.455ZM271.215,23.2c-9.146,0-20.585,12.439-20.585,21.582v76.712c0,9.143,11.441,16.58,20.585,16.58H391.476a14.1,14.1,0,0,1,10.421,4.6l27.085,29.3-1-127.193c0-9.143-10.443-21.582-19.589-21.582H271.215ZM182.848,134.24H157.262c-7.789,0-14.1-4.313-14.1-12.1s6.314-10.1,14.1-10.1h25.586c7.789,0,14.1,2.312,14.1,10.1S190.637,134.24,182.848,134.24ZM383.763,78.314H325.551c-7.788,0-14.1-4.313-14.1-12.1s6.315-12.1,14.1-12.1h58.212c7.789,0,14.1,4.313,14.1,12.1S391.552,78.314,383.763,78.314Z"/>
</svg>
