<svg xmlns="http://www.w3.org/2000/svg" viewBox="0 0 56 54">
  <metadata>
<x:xmpmeta xmlns:x="adobe:ns:meta/" x:xmptk="Adobe XMP Core 5.6-c142 79.160924, 2017/07/13-01:06:39        ">
   <rdf:RDF xmlns:rdf="http://www.w3.org/1999/02/22-rdf-syntax-ns#">
      <rdf:Description rdf:about=""/>
   </rdf:RDF>
</x:xmpmeta>
                                                                                                    
                                                                                                    
  </metadata>
<defs>
    <style>
      .cls-1 {
        fill-rule: evenodd;
      }
    </style>
  </defs>
  <path id="Forma_1" data-name="Forma 1" class="cls-1" d="M11.9,30.194A11.905,11.905,0,1,0,23.809,42.1,11.92,11.92,0,0,0,11.9,30.194Zm0,21.827A9.921,9.921,0,1,1,21.825,42.1,9.934,9.934,0,0,1,11.9,52.02Zm5.954-10.913H12.893V36.146a0.992,0.992,0,0,0-1.985,0V42.1a0.991,0.991,0,0,0,.992.992h5.954A0.992,0.992,0,1,0,17.855,41.107ZM55,41.013c-1.993-3.766-8.911-7.85-9.216-8.028a4.909,4.909,0,0,0-3.695-.641,3.293,3.293,0,0,0-1.979,1.533,33.07,33.07,0,0,1-2.572,2.844c-2.353,1.591-4.221,1.4-6.247-.624l-11.4-11.4c-2.029-2.029-2.216-3.9-.626-6.242a33.074,33.074,0,0,1,2.847-2.575,3.3,3.3,0,0,0,1.534-1.98A4.9,4.9,0,0,0,23,10.2C22.825,9.909,18.74,2.991,14.973,1a4.87,4.87,0,0,0-5.752.865L6.7,4.381c-5.988,5.985-6.184,13.3-.57,21.146A0.993,0.993,0,0,0,7.75,24.371c-5.117-7.152-5-13.233.357-18.588l2.517-2.516a2.9,2.9,0,0,1,3.42-.515c3.269,1.729,7.2,8.386,7.233,8.443a3.05,3.05,0,0,1,.454,2.179,1.333,1.333,0,0,1-.679.829l-0.149.1a29.266,29.266,0,0,0-3.283,3.038A8.184,8.184,0,0,0,16.4,19.989a14.057,14.057,0,0,1-1.464-4.843,0.993,0.993,0,0,0-1.976.205c0.716,6.9,6.083,11.389,6.31,11.576,0.026,0.021.056,0.029,0.082,0.047L29.882,37.5c0.044,0.044.088,0.082,0.133,0.124a0.968,0.968,0,0,0,.105.157A20.709,20.709,0,0,0,41.63,43.023c0.035,0,.069.005,0.1,0.005a0.992,0.992,0,0,0,.1-1.979A17.488,17.488,0,0,1,36.327,39.5a8.558,8.558,0,0,0,2.316-1.137,29.263,29.263,0,0,0,3.039-3.282l0.1-.15a1.336,1.336,0,0,1,.829-0.678,3.045,3.045,0,0,1,2.17.447C46.649,35.8,51.8,39.225,53.24,41.94a2.9,2.9,0,0,1-.515,3.418l-2.518,2.517c-5.352,5.349-11.7,5.4-18.871.158a0.992,0.992,0,1,0-1.172,1.6c3.905,2.857,7.674,4.283,11.22,4.283a14.275,14.275,0,0,0,10.227-4.639l2.518-2.517A4.862,4.862,0,0,0,55,41.013Z"/>
</svg>
