<svg xmlns="http://www.w3.org/2000/svg" viewBox="0 0 537 612">
  <metadata>
<x:xmpmeta xmlns:x="adobe:ns:meta/" x:xmptk="Adobe XMP Core 5.6-c142 79.160924, 2017/07/13-01:06:39        ">
   <rdf:RDF xmlns:rdf="http://www.w3.org/1999/02/22-rdf-syntax-ns#">
      <rdf:Description rdf:about=""/>
   </rdf:RDF>
</x:xmpmeta>
  </metadata>
<defs>
    <style>
      .cls-1 {
        fill-rule: evenodd;
      }
    </style>
  </defs>
  <path id="Forma_1" data-name="Forma 1" class="cls-1" d="M505.372,0H268.5a31.654,31.654,0,0,0-31.628,31.609V139.886H176.455a85.432,85.432,0,0,0-85.3,90.737l5.747,91.9c0.108,39.771,16.869,75.346,43.063,98.847V437.45l-17.742,26.6L39.175,486.685A53.253,53.253,0,0,0,0,537.943v42.448A31.654,31.654,0,0,0,31.628,612H397.7a31.654,31.654,0,0,0,31.627-31.609V537.943a53.246,53.246,0,0,0-39.172-51.256L307.1,464.048l-17.742-26.6V421.373c26.194-23.5,42.954-59.076,43.063-98.846l1.412-22.58H505.372A31.653,31.653,0,0,0,537,268.338V31.609A31.654,31.654,0,0,0,505.372,0ZM128.882,180.63a64.663,64.663,0,0,1,47.573-20.568h76.419a65.251,65.251,0,0,1,65.148,69.3l-1.9,30.362a189.373,189.373,0,0,0-18.108-29.845,10.094,10.094,0,0,0-11.773-3.174c-50.7,20.525-145.989,20.782-146.946,20.782a10.1,10.1,0,0,0-6.236,2.156c-0.7.553-10.03,8.04-19.1,22.169l-2.654-42.448A64.586,64.586,0,0,1,128.882,180.63ZM243.338,508.7s0,0,0,0l-13.719-13.71L277.1,455.442l11.57,17.346-32.049,48.047a0.672,0.672,0,0,1-1.036.1Zm-57.347,0-12.244,12.236a0.674,0.674,0,0,1-1.036-.1l-32.049-48.046,11.57-17.346,47.481,39.543L186,508.69Zm28.674,49.5c0.847,0,1.681-.043,2.512-0.109l6.923,33.735H205.231l6.924-33.735C212.984,558.155,213.819,558.2,214.665,558.2Zm11.44-31.609a11.44,11.44,0,0,1-22.879,0v-6.581l11.439-11.433,11.44,11.433v6.581Zm-11.44-45.413-53.741-44.758a108.966,108.966,0,0,0,107.483,0ZM20.189,580.391V537.943a33.03,33.03,0,0,1,24.3-31.793l79.68-21.719,31.748,47.592a20.792,20.792,0,0,0,15.3,9.183q1.042,0.1,2.077.1a20.745,20.745,0,0,0,11.75-3.649,31.727,31.727,0,0,0,8.2,12.156l-8.621,42.009H95.557V558.87a10.094,10.094,0,0,0-20.188,0v32.954H31.628A11.449,11.449,0,0,1,20.189,580.391Zm388.954-42.448v42.448A11.449,11.449,0,0,1,397.7,591.824H353.962V558.87a10.094,10.094,0,0,0-20.188,0v32.954H244.709l-8.622-42.006a31.708,31.708,0,0,0,8.2-12.157,20.744,20.744,0,0,0,11.751,3.65c0.689,0,1.384-.034,2.077-0.1a20.788,20.788,0,0,0,15.3-9.182l31.748-47.592,79.682,21.718A33.026,33.026,0,0,1,409.142,537.943ZM214.665,430.418c-53.666,0-97.342-48.328-97.564-107.824a90.374,90.374,0,0,1,26.091-54.959c18.16-.23,93.664-2.226,143.077-19.4,8.3,12.51,25.971,42.786,25.971,73.9C312.24,381.845,268.469,430.418,214.665,430.418Zm302.146-162.08a11.448,11.448,0,0,1-11.439,11.433H335.1l3.074-49.147a86.771,86.771,0,0,0-.611-17.037L462.977,88.245v29.447a10.094,10.094,0,0,0,20.188,0V63.89A10.091,10.091,0,0,0,473.071,53.8H419.236a10.088,10.088,0,1,0,0,20.176H448.7L331.323,191.286a85.548,85.548,0,0,0-16.161-24.47,84.569,84.569,0,0,0-58.1-26.824V31.609A11.449,11.449,0,0,1,268.5,20.176H505.372a11.449,11.449,0,0,1,11.439,11.433V268.338ZM361.772,56.756a10.1,10.1,0,0,0-14.274,0l-19.78,19.768-19.78-19.768a10.091,10.091,0,0,0-14.275,14.267l19.779,19.768-19.779,19.767a10.091,10.091,0,0,0,14.275,14.268l19.78-19.768,19.78,19.768a10.091,10.091,0,0,0,14.274-14.267L341.993,90.791l19.779-19.767A10.086,10.086,0,0,0,361.772,56.756ZM480.208,175.121a10.1,10.1,0,0,0-14.274,0l-19.78,19.768-19.78-19.768A10.091,10.091,0,1,0,412.1,189.388l19.779,19.767L412.1,228.922a10.091,10.091,0,0,0,14.275,14.267l19.78-19.769,19.78,19.769a10.091,10.091,0,0,0,14.274-14.267l-19.779-19.766,19.779-19.767A10.085,10.085,0,0,0,480.208,175.121Z"/>
</svg>
