<svg xmlns="http://www.w3.org/2000/svg" viewBox="0 0 612 612">
  <metadata>
<x:xmpmeta xmlns:x="adobe:ns:meta/" x:xmptk="Adobe XMP Core 5.6-c142 79.160924, 2017/07/13-01:06:39        ">
   <rdf:RDF xmlns:rdf="http://www.w3.org/1999/02/22-rdf-syntax-ns#">
      <rdf:Description rdf:about=""/>
   </rdf:RDF>
</x:xmpmeta>
  </metadata>
<defs>
    <style>
      .cls-1 {
        fill-rule: evenodd;
      }
    </style>
  </defs>
  <path id="Forma_1" data-name="Forma 1" class="cls-1" d="M516.444,263.97a63.841,63.841,0,1,0-63.866-63.841A63.921,63.921,0,0,0,516.444,263.97Zm0-101.061c18.322,0,37.228,18.9,37.228,37.22s-18.907,37.221-37.228,37.221-37.236-18.9-37.236-37.221a34.814,34.814,0,0,1,.206-3.759C481.263,179.314,499.37,162.909,516.444,162.909ZM95.559,263.97A63.841,63.841,0,1,0,31.7,200.129,63.924,63.924,0,0,0,95.559,263.97Zm0-101.061c18.326,0,37.233,18.9,37.233,37.22S113.883,236.35,95.559,236.35s-37.231-17.9-37.231-36.221S77.235,162.909,95.559,162.909Zm58.317,337.243a15.312,15.312,0,0,1-15.315,15.31h-48.3v69.906h19.071c8.46,0,15.316,2.854,15.316,11.31a15.312,15.312,0,0,1-15.316,15.31H77.268c-0.107,0-.216,0-0.325,0s-0.218,0-.325,0H44.551a15.312,15.312,0,0,1-15.315-15.31c0-8.456,6.856-11.31,15.315-11.31H63.627V515.462H15.683a15.588,15.588,0,0,1-8.5-2.336A15.3,15.3,0,0,1,0,500.152c0-.152,0-0.305.007-0.456V354.518a15.311,15.311,0,0,1,15.315-15.309c8.459,0,12.315,6.853,12.315,15.309V488.842H138.561C147.02,488.842,153.876,491.7,153.876,500.152Zm386.56-40.995-103.089.327L398.215,600.5a15.008,15.008,0,0,1-.853,2.436A15.331,15.331,0,0,1,383.39,612c-0.164,0-.327,0-0.49-0.008H343.1a15.313,15.313,0,0,1-15.316-15.31c0-8.456,6.857-7.31,15.316-7.31h32.638l38.195-145.251A15.311,15.311,0,0,1,428.643,432.9l101.478-.317-1-123.942H518.168l-53.146,74.035h15.739c8.459,0,20.315,6.854,20.315,15.31s-6.856,12.31-15.315,12.31H382.755a15.315,15.315,0,0,1-14.424-10.163L334.173,304.7a15.307,15.307,0,0,1,9.272-19.566c7.961-2.839,12.728,1.307,15.573,9.271l31.529,88.271H432.5l65.238-92.185a15.322,15.322,0,0,1,12.5-6.468h30.2a15.312,15.312,0,0,1,15.316,15.31c0,0.151,0,.305-0.007.456v144.06a15.259,15.259,0,0,1-4.178,10.509s0,0,0,0l-0.011.01a0.019,0.019,0,0,0-.006.007,0.036,0.036,0,0,0-.009.008l-0.008.007a0.131,0.131,0,0,1-.011.012,0.009,0.009,0,0,1,0,0l-0.01.011-0.007.007a0.024,0.024,0,0,0,0,0l-0.012.011-0.015.018h0l-0.015.015a15.3,15.3,0,0,1-5.823,3.775h0l-0.021.006-0.015.006a0.032,0.032,0,0,0-.02.006,0.018,0.018,0,0,0-.009,0A15.135,15.135,0,0,1,540.436,459.157Zm71.564,41a15.322,15.322,0,0,1-15.683,15.31H548.379v68.906h19.072c8.459,0,15.315,3.854,15.315,12.31a15.312,15.312,0,0,1-15.315,15.31H535.389c-0.107,0-.216,0-0.325,0s-0.218,0-.325,0H502.674a15.312,15.312,0,0,1-15.315-15.31c0-8.456,6.856-12.31,15.315-12.31h19.075V515.462h-48.31a15.313,15.313,0,0,1-15.316-15.31c0-8.456,6.857-11.31,15.316-11.31H586.364V354.518c0-8.456,1.856-15.309,10.315-15.309a15.311,15.311,0,0,1,15.315,15.309V499.7C612,499.847,612,500,612,500.152Zm-327.783,96.53A15.312,15.312,0,0,1,268.9,611.991H229.107c-0.163,0-.327.009-0.49,0.009a15.334,15.334,0,0,1-13.981-9.075,15.1,15.1,0,0,1-.844-2.418l-39.138-141.02-103.09-.326a15.347,15.347,0,0,1-5.136-.881c-0.008,0-.015,0-0.022-0.009a0.035,0.035,0,0,0-.007,0l-0.015,0a0.16,0.16,0,0,1-.02-0.007h0a15.292,15.292,0,0,1-5.823-3.774l-0.015-.016h0a0.13,0.13,0,0,1-.015-0.017l-0.012-.011-0.005-.006-0.007-.006-0.01-.011a0.014,0.014,0,0,1-.005,0s-0.007-.009-0.01-0.012a0.026,0.026,0,0,1-.009-0.007,0.039,0.039,0,0,0-.008-0.008,0.026,0.026,0,0,0-.007-0.007l-0.01-.01a0,0,0,0,0,0,0,15.262,15.262,0,0,1-4.178-10.509V299.345h0a15.312,15.312,0,0,1,15.315-15.31h30.2a15.32,15.32,0,0,1,12.5,6.469L179.5,382.688h41.955l31.534-88.272c2.845-7.963,7.613-12.114,15.573-9.27a15.305,15.305,0,0,1,9.273,19.566l-31.164,93.434a15.315,15.315,0,0,1-14.424,10.16H171.778q-0.19,0-.384,0h-45.15c-8.459,0-15.315-4.854-15.315-13.31s6.856-12.309,15.315-12.309H141.98L93.839,314.652h-6.96V428.594l99.478,0.316a15.322,15.322,0,0,1,14.711,11.217l39.2,145.253H268.9C277.36,585.372,284.217,588.225,284.217,596.682ZM396.076,136.774a15.316,15.316,0,0,0,26.632-10.315V33.52A33.563,33.563,0,0,0,389.177,0H307.748a33.564,33.564,0,0,0-33.532,33.52V77.272a33.565,33.565,0,0,0,33.532,33.521h64.627Zm-96.23-54.5V28.52a2.94,2.94,0,0,1,2.9-2.9h91.429a2.975,2.975,0,0,1,2.9,2.9V91.949l-1.625-1.783a15.319,15.319,0,0,0-11.316-4.994H302.749A2.942,2.942,0,0,1,299.846,82.272Zm5,61.672a15.312,15.312,0,0,1-15.315,15.31H232.6l-20.5,11.487a15.315,15.315,0,0,1-22.8-13.355v-75.4a33.569,33.569,0,0,1,33.537-33.523h17.989a15.311,15.311,0,0,1,15.315,15.31c0,8.456-10.856,11.31-19.315,11.31H218.829a2.943,2.943,0,0,0-2.906,2.9v57.272l1.188-.667a15.325,15.325,0,0,1,7.487-1.955h64.933C297.99,132.634,304.846,135.488,304.846,143.944Z"/>
</svg>
