<svg xmlns="http://www.w3.org/2000/svg" width="606" height="800" viewBox="0 0 606 800">
  <metadata><?xpacket begin="﻿" id="W5M0MpCehiHzreSzNTczkc9d"?>
<x:xmpmeta xmlns:x="adobe:ns:meta/" x:xmptk="Adobe XMP Core 5.6-c142 79.160924, 2017/07/13-01:06:39        ">
   <rdf:RDF xmlns:rdf="http://www.w3.org/1999/02/22-rdf-syntax-ns#">
      <rdf:Description rdf:about=""/>
   </rdf:RDF>
</x:xmpmeta>
                                                                                                    
                                                                                                    
                                                                                                    
                                                                                                    
                                                                                                    
                                                                                                    
                                                                                                    
                                                                                                    
                                                                                                    
                                                                                                    
                                                                                                    
                                                                                                    
                                                                                                    
                                                                                                    
                                                                                                    
                                                                                                    
                                                                                                    
                                                                                                    
                                                                                                    
                                                                                                    
                           
<?xpacket end="w"?></metadata>
<defs>
    <style>
      .cls-1 {
        fill-rule: evenodd;
      }
    </style>
  </defs>
  <path class="cls-1" d="M565.428,27.646H219.264V26.782A26.8,26.8,0,0,0,192.5,0H109.632A26.8,26.8,0,0,0,82.872,26.782v0.864h-42.3A40.634,40.634,0,0,0,0,68.251V759.4A40.635,40.635,0,0,0,40.572,800H565.428A40.635,40.635,0,0,0,606,759.4V68.251A40.635,40.635,0,0,0,565.428,27.646Zm-456.659-.864a0.865,0.865,0,0,1,.863-0.864H192.5a0.865,0.865,0,0,1,.863.864v158.73l-36.509-18.269a12.939,12.939,0,0,0-11.581,0l-36.508,18.269V26.782ZM580.1,759.4a14.7,14.7,0,0,1-14.676,14.687H40.572A14.7,14.7,0,0,1,25.9,759.4V68.251A14.7,14.7,0,0,1,40.572,53.564h42.3V206.479a12.95,12.95,0,0,0,18.742,11.591l49.457-24.748,49.457,24.748a12.948,12.948,0,0,0,18.739-11.591V53.564H565.43A14.7,14.7,0,0,1,580.1,68.251V759.4h0ZM495.453,495.737c-0.009-.121-0.012-0.243-0.025-0.363-0.027-.259-0.074-0.517-0.117-0.773-0.029-.178-0.054-0.357-0.09-0.531s-0.088-.343-0.13-0.513c-0.067-.256-0.128-0.513-0.209-0.764-0.037-.11-0.082-0.221-0.121-0.332-0.108-.3-0.218-0.605-0.346-0.9-0.01-.022-0.015-0.045-0.026-0.067L440.257,369.605V357.667h14.675a12.959,12.959,0,0,0,0-25.918H315.949V314.066a40.573,40.573,0,1,0-25.9,0v17.683H151.068a12.959,12.959,0,0,0,0,25.918h14.675v11.938L111.61,491.5c-0.01.022-.017,0.047-0.025,0.069-0.128.292-.238,0.591-0.344,0.894-0.039.11-.086,0.221-0.122,0.333-0.082.251-.144,0.507-0.209,0.764-0.045.17-.095,0.341-0.131,0.513s-0.059.354-.09,0.531c-0.044.256-.09,0.514-0.118,0.773-0.012.12-.015,0.242-0.024,0.363-0.026.317-.047,0.633-0.048,0.948,0,0.027,0,.051,0,0.075,0,30.011,30.594,54.427,68.2,54.427s68.2-24.416,68.2-54.427c0-.026,0-0.05,0-0.075,0-.315-0.022-0.629-0.048-0.948-0.009-.121-0.012-0.243-0.024-0.363-0.027-.259-0.074-0.517-0.117-0.773-0.03-.178-0.054-0.357-0.09-0.531s-0.089-.343-0.132-0.513c-0.065-.256-0.128-0.513-0.209-0.764-0.036-.11-0.081-0.221-0.121-0.332-0.107-.3-0.217-0.605-0.345-0.9-0.01-.022-0.016-0.045-0.025-0.067L191.641,369.605V357.667h98.41V472.11a40.666,40.666,0,0,0-27.624,38.473v97.624H233.94a12.959,12.959,0,0,0,0,25.918H372.06a12.959,12.959,0,0,0,0-25.918H343.572V510.583a40.665,40.665,0,0,0-27.623-38.473V357.667h98.41v11.938L360.226,491.5c-0.01.022-.017,0.047-0.025,0.069-0.128.292-.238,0.591-0.344,0.894-0.04.11-.086,0.221-0.123,0.333-0.081.251-.143,0.507-0.208,0.764-0.045.17-.1,0.341-0.132,0.513s-0.059.354-.09,0.531c-0.043.256-.09,0.514-0.117,0.773-0.012.12-.016,0.242-0.024,0.363-0.026.317-.047,0.633-0.048,0.948,0,0.027,0,.051,0,0.075,0,30.011,30.594,54.427,68.2,54.427s68.2-24.416,68.2-54.427c0-.026,0-0.05,0-0.075C495.5,496.37,495.479,496.054,495.453,495.737ZM303,260.907a14.687,14.687,0,1,1-14.675,14.687A14.7,14.7,0,0,1,303,260.907ZM178.692,404.263L214.014,483.8H143.368Zm0,121.006c-16.06,0-30.373-6.4-37.508-15.55H216.2C209.064,518.866,194.752,525.269,178.692,525.269Zm138.983,82.938h-29.35V510.583a14.675,14.675,0,1,1,29.35,0v97.624ZM427.308,404.263L462.631,483.8H391.983Zm0,121.006c-16.059,0-30.372-6.4-37.508-15.55h75.015C457.681,518.866,443.368,525.269,427.308,525.269Z"/>
</svg>
