<svg xmlns="http://www.w3.org/2000/svg" viewBox="0 0 478 512">
  <metadata>
<x:xmpmeta xmlns:x="adobe:ns:meta/" x:xmptk="Adobe XMP Core 5.6-c142 79.160924, 2017/07/13-01:06:39        ">
   <rdf:RDF xmlns:rdf="http://www.w3.org/1999/02/22-rdf-syntax-ns#">
      <rdf:Description rdf:about=""/>
   </rdf:RDF>
</x:xmpmeta>
  </metadata>
<defs>
    <style>
      .cls-1 {
        fill-rule: evenodd;
      }
    </style>
  </defs>
  <path class="cls-1" d="M358.179,315.732a8.533,8.533,0,0,0-8.528-8.533H298.483a8.533,8.533,0,0,0,0,17.066h51.168A8.532,8.532,0,0,0,358.179,315.732ZM324.066,93.867V51.2a8.528,8.528,0,1,0-17.055,0V93.867a42.7,42.7,0,0,0,42.64,42.667H426.4V298.666a8.528,8.528,0,1,0,17.056,0V128a8.534,8.534,0,0,0-8.528-8.533H349.651A25.624,25.624,0,0,1,324.066,93.867ZM349.65,204.8H281.425a8.533,8.533,0,0,0,0,17.066H349.65A8.533,8.533,0,0,0,349.65,204.8Zm-93.808,8.533a8.534,8.534,0,0,0-8.528-8.533H196.146a8.533,8.533,0,0,0,0,17.066h51.168A8.533,8.533,0,0,0,255.842,213.333ZM196.145,256a8.533,8.533,0,0,0,0,17.066H213.2a8.533,8.533,0,0,0,0-17.066H196.145Zm0-85.332h85.28a8.533,8.533,0,0,0,0-17.066h-85.28A8.533,8.533,0,0,0,196.145,170.667Zm51.168,102.4h85.281a8.533,8.533,0,0,0,0-17.066H247.313A8.533,8.533,0,0,0,247.313,273.066ZM298.482,358.4a8.533,8.533,0,0,0,0,17.066h17.056a8.533,8.533,0,0,0,0-17.066H298.482ZM264.37,307.2H196.145a8.533,8.533,0,0,0,0,17.066H264.37A8.533,8.533,0,0,0,264.37,307.2Zm0,51.2H196.145a8.533,8.533,0,0,0,0,17.066H264.37A8.533,8.533,0,0,0,264.37,358.4Zm203.045-6.9-17.057-17.067c-13.107-13.116-33.08-13.09-46.17,0l-111.735,111.8a8.549,8.549,0,0,0-2.5,6.033v51.2A8.534,8.534,0,0,0,298.482,512H349.65a8.539,8.539,0,0,0,6.03-2.5L467.415,397.7C481,384.1,481,365.1,467.415,351.5Zm-74.254,18.1,13.525,13.534-74.092,74.138-13.526-13.534Zm-86.15,125.337V455.8l39.11,39.134h-39.11Zm51.168-12.066-13.526-13.534,74.093-74.138,13.526,13.534Zm97.177-97.237-11.027,11.034-39.11-39.134L416.246,346.5c6.737-6.733,15.283-6.767,22.054,0l17.056,17.067C462.255,370.474,462.255,378.725,455.356,385.629ZM264.37,494.932H42.639a25.624,25.624,0,0,1-25.584-25.6V42.667a25.624,25.624,0,0,1,25.584-25.6H312.008L394.79,99.9a8.529,8.529,0,0,0,12.058-12.066L321.568,2.5a8.506,8.506,0,0,0-6.03-2.5H42.639A42.7,42.7,0,0,0,0,42.667V469.333A42.7,42.7,0,0,0,42.64,512H264.371A8.534,8.534,0,0,0,264.37,494.932Zm0-85.333H196.145a8.533,8.533,0,0,0,0,17.066H264.37A8.533,8.533,0,0,0,264.37,409.6ZM153.505,162.133a8.534,8.534,0,0,0-8.528-8.533H93.809a8.534,8.534,0,0,0-8.528,8.533v51.2a8.534,8.534,0,0,0,8.528,8.533h51.168a8.534,8.534,0,0,0,8.528-8.533v-51.2ZM136.449,204.8H102.336V170.667h34.113V204.8ZM93.808,426.666h51.168a8.534,8.534,0,0,0,8.528-8.533v-51.2a8.534,8.534,0,0,0-8.528-8.533H93.808a8.534,8.534,0,0,0-8.528,8.533v51.2A8.534,8.534,0,0,0,93.808,426.666Zm8.528-51.2h34.113V409.6H102.336V375.466Zm2.5-53.7a8.533,8.533,0,0,0,6.029,2.5,6.913,6.913,0,0,0,.845-0.043,8.507,8.507,0,0,0,6.251-3.755l34.112-51.2a8.531,8.531,0,1,0-14.191-9.471l-28.339,42.538-9.7-9.7A8.529,8.529,0,1,0,87.778,304.7Z"/>
</svg>
