<svg xmlns="http://www.w3.org/2000/svg" width="745" height="800" viewBox="0 0 745 800">
  <metadata><?xpacket begin="﻿" id="W5M0MpCehiHzreSzNTczkc9d"?>
<x:xmpmeta xmlns:x="adobe:ns:meta/" x:xmptk="Adobe XMP Core 5.6-c142 79.160924, 2017/07/13-01:06:39        ">
   <rdf:RDF xmlns:rdf="http://www.w3.org/1999/02/22-rdf-syntax-ns#">
      <rdf:Description rdf:about=""/>
   </rdf:RDF>
</x:xmpmeta>
                                                                                                    
                                                                                                    
                                                                                                    
                                                                                                    
                                                                                                    
                                                                                                    
                                                                                                    
                                                                                                    
                                                                                                    
                                                                                                    
                                                                                                    
                                                                                                    
                                                                                                    
                                                                                                    
                                                                                                    
                                                                                                    
                                                                                                    
                                                                                                    
                                                                                                    
                                                                                                    
                           
<?xpacket end="w"?></metadata>
<defs>
    <style>
      .cls-1 {
        fill-rule: evenodd;
      }
    </style>
  </defs>
  <path class="cls-1" d="M661.859,576.447L611.29,563.81a12.954,12.954,0,0,0-8.829-11.381l-79.2-26.388a40.38,40.38,0,0,0-11.772-12.127L491.816,500.8c44.687-42.915,73.415-109.325,73.415-183.738a192.774,192.774,0,0,0-3.322-33.724,13,13,0,0,0,.619-2.6c0.085-.646,8.589-65.555,13.334-143.546a124.028,124.028,0,0,0-27.554-85.974A122.742,122.742,0,0,0,469.7,6.9,709.445,709.445,0,0,0,372.5,0c-25.1,0-86.823,4.126-129.48,41.469h-4.83a82.022,82.022,0,0,0-81.91,87.784c3.613,50.412,10.372,121.988,22.044,176.691a12.975,12.975,0,0,0,1.565,3.934c-0.059,2.391-.121,4.781-0.121,7.184,0,74.413,28.728,140.823,73.416,183.738l-19.679,13.114a40.368,40.368,0,0,0-11.772,12.127l-79.2,26.388a12.956,12.956,0,0,0-8.829,11.382L83.139,576.449A109.566,109.566,0,0,0,0,682.891v76.5A40.658,40.658,0,0,0,40.621,800H704.378A40.659,40.659,0,0,0,745,759.4v-76.5A109.573,109.573,0,0,0,661.859,576.447Zm-148.035,65.73,23.454,35.168-49.155,96.737H454.638c-0.238-18.821.9-59.726,13.367-93.09a13.023,13.023,0,0,0,.447-1.491l0.324-.642L488.9,638.647c12.121-24.235,26.67-53.337,36.4-72.812a40.346,40.346,0,0,0,3.575-10.606l53.161,17.712-12.211,37.39-48.36,12.084A12.96,12.96,0,0,0,513.824,642.177ZM411.8,774.082L400.521,685.31a26.758,26.758,0,0,0,12.6-22.675v-4.89a264.949,264.949,0,0,1,27.693,22.626c-11.217,35.285-12.377,74.394-12.127,93.711H411.8Zm-95.1,0c0.25-19.369-.918-58.632-12.217-93.99a264.924,264.924,0,0,1,27.394-22.349v4.892a26.762,26.762,0,0,0,12.6,22.675L333.2,774.082H316.7Zm55.8-139.113a159.667,159.667,0,0,1,14.694,6.826v20.84a0.864,0.864,0,0,1-.864.864H358.671a0.864,0.864,0,0,1-.864-0.864V641.794A159.75,159.75,0,0,1,372.5,634.969Zm-2.4,54.448h4.813l10.755,84.665H359.338ZM502.111,554.251c-24.106,48.226-41.294,82.6-50.472,100.932-22.236-19.544-42.5-31.536-56.4-38.421l89.538-89.5,12.333,8.219A14.7,14.7,0,0,1,502.111,554.251Zm36.328-236.324H496.09V303.24a12.961,12.961,0,0,0-12.964-12.959h-82.97a12.962,12.962,0,0,0-12.964,12.959v3.623a40.487,40.487,0,0,0-29.385,0V303.24a12.962,12.962,0,0,0-12.964-12.959H261.874a12.962,12.962,0,0,0-12.965,12.959v14.687H206.56c-0.288,0-.57.024-0.855,0.043,0-.3-0.009-0.6-0.009-0.908,0-44.725,11.137-86.975,32.292-122.836,81.6,25.385,173.143,25.309,269.868,25.221l8.026,0c9.958,25.17,23.421,65.2,23.421,97.619,0,0.3-.008.6-0.008,0.908C539.01,317.951,538.728,317.927,538.439,317.927ZM182.143,127.4A56.1,56.1,0,0,1,238.19,67.387h9.855a12.962,12.962,0,0,0,8.94-3.575c35.926-34.2,92.752-37.893,115.515-37.893a683.278,683.278,0,0,1,93.628,6.65,96.889,96.889,0,0,1,62.053,34.995,98.181,98.181,0,0,1,21.8,68.062c-1.876,30.818-4.342,59.546-6.634,82.98-2.27-6.028-4.554-11.78-6.766-17.1a12.967,12.967,0,0,0-11.97-7.985l-16.777.009c-98.392.092-191.344,0.164-271.322-27.037a12.964,12.964,0,0,0-15.033,5.187,250.991,250.991,0,0,0-28.967,61.46C187.648,195.908,184.319,157.773,182.143,127.4Zm24.929,216.447h41.837v0.863a12.965,12.965,0,0,0,25.929,0V316.2h15.556v14.687a12.964,12.964,0,0,0,25.928,0V316.2h15.557v28.509a12.964,12.964,0,0,0,25.928,0,14.693,14.693,0,0,1,29.385,0,12.964,12.964,0,0,0,25.928,0V316.2h15.557v14.687a12.964,12.964,0,0,0,25.928,0V316.2h15.557v28.509a12.964,12.964,0,0,0,25.928,0v-0.863h41.838c-10.562,102.2-80.721,181.424-165.428,181.424S217.633,446.048,207.072,343.845ZM372.5,551.187a161.857,161.857,0,0,0,65.687-14.01L372.5,602.841l-65.688-65.662A161.9,161.9,0,0,0,372.5,551.187ZM247.888,535.478l12.334-8.219,89.538,89.5c-13.9,6.885-34.165,18.877-56.4,38.421C284,636.49,266.487,601.458,242.89,554.251A14.7,14.7,0,0,1,247.888,535.478Zm-31.767,19.751a40.355,40.355,0,0,0,3.574,10.606c9.734,19.475,24.281,48.577,36.4,72.812l20.128,40.212c0.436,0.871.863,1.718,1.3,2.534,12.292,33.2,13.442,73.917,13.215,92.689H256.883l-49.158-96.739,23.453-35.166a12.956,12.956,0,0,0-7.644-19.76l-48.359-12.084-12.214-37.39ZM25.928,759.4v-76.5a83.685,83.685,0,0,1,63.5-81.3l51.417-12.851,11.907,36.445a12.958,12.958,0,0,0,9.18,8.55L199.4,643.1l-17.453,26.169a12.961,12.961,0,0,0-.773,13.058L227.8,774.082H150.383V731.749a12.964,12.964,0,0,0-25.928,0v42.333H40.621A14.706,14.706,0,0,1,25.928,759.4Zm693.143,0a14.706,14.706,0,0,1-14.693,14.687H620.545V731.749a12.964,12.964,0,0,0-25.928,0v42.333H517.205l46.621-91.757a12.951,12.951,0,0,0-.772-13.056L545.6,643.1l37.466-9.364a12.959,12.959,0,0,0,9.181-8.55l11.906-36.447,51.417,12.849a83.688,83.688,0,0,1,63.5,81.3V759.4h0ZM309.894,451.8c15.365,10.452,38.185,16.448,62.606,16.448s47.241-6,62.605-16.448a12.96,12.96,0,1,0-14.587-21.427c-11.007,7.486-28.958,11.957-48.02,11.957s-37.013-4.471-48.021-11.957A12.959,12.959,0,1,0,309.894,451.8Z"/>
</svg>
