<svg xmlns="http://www.w3.org/2000/svg" viewBox="0 0 612 612">
  <metadata>
<x:xmpmeta xmlns:x="adobe:ns:meta/" x:xmptk="Adobe XMP Core 5.6-c142 79.160924, 2017/07/13-01:06:39        ">
   <rdf:RDF xmlns:rdf="http://www.w3.org/1999/02/22-rdf-syntax-ns#">
      <rdf:Description rdf:about=""/>
   </rdf:RDF>
</x:xmpmeta>
</metadata>
<defs>
    <style>
      .cls-1 {
        fill-rule: evenodd;
      }
    </style>
  </defs>
  <path id="Forma_1" data-name="Forma 1" class="cls-1" d="M611.989,359.174c0-.1.011-0.2,0.011-0.3,0-.055-0.007-0.108-0.008-0.162,0-.206-0.014-0.412-0.032-0.618-0.01-.138-0.022-0.273-0.038-0.409-0.021-.172-0.049-0.343-0.079-0.517s-0.062-.339-0.1-0.507c-0.03-.135-0.066-0.267-0.1-0.4-0.054-.2-0.112-0.4-0.178-0.588-0.018-.053-0.029-0.1-0.048-0.157L520.23,102.228a41.7,41.7,0,0,0,28.323-39.442,9.914,9.914,0,1,0-19.827,0,21.835,21.835,0,0,1-21.81,21.81c-32.422,0-55.086-9.347-79.08-19.242C402.1,54.739,375.53,43.785,335.478,42.438a31.2,31.2,0,0,0-19.564-19.657V9.914a9.914,9.914,0,0,0-19.828,0V22.78a31.2,31.2,0,0,0-19.564,19.657c-40.052,1.347-66.615,12.3-92.358,22.916-23.995,9.9-46.658,19.243-79.08,19.243a21.835,21.835,0,0,1-21.81-21.81,9.914,9.914,0,0,0-19.827,0A41.7,41.7,0,0,0,91.77,102.228L0.586,355.514c-0.018.051-.03,0.1-0.048,0.157-0.066.193-.124,0.39-0.178,0.588-0.037.134-.073,0.267-0.1,0.4-0.038.168-.07,0.337-0.1,0.507s-0.058.344-.079,0.517c-0.016.135-.028,0.271-0.038,0.409-0.016.206-.028,0.413-0.032,0.618,0,0.054-.007.107-0.007,0.162,0,0.1.011,0.2,0.011,0.3s0,0.226.012,0.338c0.238,20.122,11.664,38.737,32.267,52.474,19.585,13.057,45.439,20.247,72.795,20.247s53.21-7.19,72.795-20.247c20.6-13.737,32.028-32.35,32.267-52.474,0.008-.112.008-0.226,0.012-0.338s0.01-.2.01-0.3c0-.055-0.006-0.108-0.008-0.162,0-.206-0.014-0.412-0.031-0.618-0.011-.138-0.023-0.273-0.039-0.409-0.021-.172-0.049-0.343-0.079-0.517s-0.062-.339-0.1-0.507c-0.031-.135-0.066-0.267-0.1-0.4-0.055-.2-0.113-0.4-0.179-0.588-0.017-.053-0.029-0.1-0.047-0.157L118.994,103.88c29.2-2.26,51.285-11.353,72.729-20.2,23.931-9.87,48.629-20.048,84.9-21.4a31.2,31.2,0,0,0,19.464,19.361v290.1a31.029,31.029,0,0,0-12.808,50.581,30.937,30.937,0,0,0-8.341,21.149v106.4H231.977a31.1,31.1,0,0,0-31.063,31.062v21.149A9.914,9.914,0,0,0,210.828,612H401.169a9.913,9.913,0,0,0,9.914-9.914V580.937a31.1,31.1,0,0,0-31.063-31.062H337.063V443.469a30.937,30.937,0,0,0-8.341-21.149,31.029,31.029,0,0,0-12.808-50.581V81.643a31.2,31.2,0,0,0,19.463-19.361c36.27,1.355,60.966,11.533,84.9,21.4,21.444,8.843,43.534,17.936,72.729,20.2L402.417,355.514c-0.018.051-.03,0.1-0.048,0.157-0.066.193-.124,0.39-0.178,0.588-0.037.134-.073,0.267-0.1,0.4-0.038.168-.07,0.337-0.1,0.507s-0.058.344-.079,0.517c-0.016.135-.028,0.271-0.038,0.409-0.016.206-.028,0.413-0.032,0.618,0,0.054-.008.107-0.008,0.161,0,0.1.011,0.2,0.011,0.3s0,0.226.012,0.338c0.238,20.122,11.663,38.737,32.266,52.474,19.587,13.057,45.44,20.247,72.8,20.247s53.209-7.19,72.8-20.247c20.6-13.737,32.027-32.35,32.267-52.474C611.985,359.4,611.985,359.286,611.989,359.174Zm-506.9-235.4L186.15,348.959H24.019Zm0,288.629c-40.838,0-76.075-19.142-83.722-43.62H188.807C181.16,393.264,145.923,412.406,105.084,412.406ZM391.257,580.937v11.236H220.743V580.937A11.248,11.248,0,0,1,231.978,569.7H380.022A11.248,11.248,0,0,1,391.257,580.937Zm-96.492-31.062V443.469a11.235,11.235,0,1,1,22.47,0V549.875h-22.47ZM306,412.406a11.236,11.236,0,1,1,11.235-11.235A11.248,11.248,0,0,1,306,412.406Zm0.018-348.96h-0.037a11.234,11.234,0,0,1-.013-22.468h0.064A11.234,11.234,0,0,1,306.018,63.446ZM587.981,348.959H425.85l81.066-225.182Zm-81.065,63.447c-40.839,0-76.076-19.142-83.723-43.62H590.638C582.991,393.264,547.755,412.406,506.916,412.406Z"/>
</svg>
